<svg width="1107" height="953" viewBox="0 0 1107 953" fill="none" xmlns="http://www.w3.org/2000/svg">
<path d="M159.453 205.114L164.12 214.535L174.549 216.062L167.001 223.409L168.787 233.78L159.453 228.883L150.147 233.78L151.933 223.409L144.385 216.062L154.814 214.535L159.453 205.114Z" fill="#EBEBEB"/>
<path d="M1091.9 649.458L1096.57 658.908L1107 660.435L1099.45 667.752L1101.24 678.153L1091.9 673.255L1082.6 678.153L1084.38 667.752L1076.84 660.435L1087.26 658.908L1091.9 649.458Z" fill="#F5F5F5"/>
<path d="M907.228 923.417L911.895 932.837L922.296 934.364L914.748 941.711L916.534 952.083L907.228 947.185L897.922 952.083L899.68 941.711L892.16 934.364L902.561 932.837L907.228 923.417Z" fill="#F5F5F5"/>
<path d="M484.694 37.7251L486.423 41.24L490.312 41.8162C490.529 41.8446 490.733 41.9342 490.901 42.0746C491.069 42.215 491.194 42.4003 491.26 42.6088C491.327 42.8174 491.333 43.0405 491.277 43.2522C491.221 43.4639 491.106 43.6553 490.946 43.8041L488.065 46.5411L488.727 50.4017C488.761 50.6166 488.735 50.8367 488.652 51.0377C488.569 51.2388 488.432 51.413 488.256 51.5411C488.081 51.6692 487.873 51.7463 487.656 51.7639C487.439 51.7814 487.222 51.7388 487.028 51.6406L483.57 49.7967L480.113 51.6406C479.919 51.7388 479.701 51.7814 479.485 51.7639C479.268 51.7463 479.06 51.6692 478.884 51.5411C478.708 51.413 478.571 51.2388 478.488 51.0377C478.405 50.8367 478.379 50.6166 478.413 50.4017L479.047 46.5411L476.166 43.8041C476.005 43.6535 475.89 43.4597 475.836 43.2458C475.781 43.0319 475.79 42.8069 475.859 42.5975C475.929 42.3881 476.058 42.2032 476.229 42.0647C476.401 41.9262 476.609 41.84 476.829 41.8162L480.689 41.24L482.418 37.7251C482.487 37.4765 482.636 37.2573 482.841 37.1012C483.047 36.945 483.298 36.8605 483.556 36.8605C483.814 36.8605 484.065 36.945 484.271 37.1012C484.476 37.2573 484.625 37.4765 484.694 37.7251Z" fill="#EBEBEB"/>
<path d="M8.86034 878.558L10.589 882.045L14.4496 882.621C14.6687 882.651 14.875 882.742 15.0449 882.884C15.2149 883.025 15.3416 883.212 15.4106 883.422C15.4797 883.632 15.4883 883.858 15.4356 884.073C15.3828 884.288 15.2708 884.483 15.1122 884.637L12.2312 887.346L12.8938 891.206C12.9278 891.421 12.9019 891.641 12.8188 891.842C12.7357 892.043 12.5987 892.218 12.4229 892.346C12.247 892.474 12.0393 892.551 11.8224 892.568C11.6056 892.586 11.3881 892.543 11.194 892.445L7.73673 890.63L4.27948 892.445C4.08535 892.543 3.86789 892.586 3.65105 892.568C3.43421 892.551 3.22644 892.474 3.05063 892.346C2.87482 892.218 2.7378 892.043 2.6547 891.842C2.5716 891.641 2.54563 891.421 2.57966 891.206L3.24231 887.346L0.361263 884.637C0.20323 884.485 0.0907887 884.292 0.036576 884.079C-0.0176367 883.866 -0.0114788 883.643 0.0543474 883.433C0.120174 883.224 0.243064 883.037 0.409236 882.893C0.575408 882.75 0.778281 882.655 0.995086 882.621L4.85569 882.045L6.61313 878.558C6.69012 878.321 6.84032 878.114 7.04218 877.967C7.24404 877.821 7.48718 877.742 7.73673 877.742C7.98629 877.742 8.22944 877.821 8.4313 877.967C8.63316 878.114 8.78335 878.321 8.86034 878.558Z" fill="#F5F5F5"/>
<path d="M86.5621 0.703688L88.2908 4.21855L92.1802 4.76595C92.397 4.80055 92.5999 4.8949 92.766 5.03838C92.9322 5.18187 93.0551 5.36882 93.1209 5.57827C93.1868 5.78772 93.1929 6.01136 93.1387 6.2241C93.0845 6.43685 92.972 6.63029 92.814 6.7827L89.933 9.66374L90.5956 13.4955C90.6417 13.713 90.6238 13.9392 90.5442 14.1468C90.4646 14.3544 90.3266 14.5345 90.1469 14.6655C89.9673 14.7964 89.7535 14.8726 89.5315 14.8848C89.3095 14.8971 89.0888 14.8448 88.8958 14.7344L85.4385 12.9193L81.9813 14.7344C81.7883 14.8448 81.5675 14.8971 81.3455 14.8848C81.1235 14.8726 80.9098 14.7964 80.7302 14.6655C80.5505 14.5345 80.4125 14.3544 80.3329 14.1468C80.2533 13.9392 80.2354 13.713 80.2815 13.4955L80.9153 9.66374L78.0343 6.7827C77.8757 6.6284 77.7637 6.43268 77.7109 6.21782C77.6581 6.00296 77.6668 5.7776 77.7358 5.56741C77.8049 5.35723 77.9316 5.17067 78.1015 5.02897C78.2714 4.88728 78.4777 4.79614 78.6969 4.76595L82.5575 4.21855L84.4014 0.703688C84.4939 0.494329 84.6453 0.316355 84.8371 0.191429C85.0289 0.0665041 85.2529 0 85.4818 0C85.7107 0 85.9346 0.0665041 86.1264 0.191429C86.3182 0.316355 86.4696 0.494329 86.5621 0.703688Z" fill="#EBEBEB"/>
<path d="M81.8949 695.094C81.9006 695.853 81.6807 696.596 81.2632 697.23C80.8456 697.864 80.2492 698.36 79.5496 698.654C78.8499 698.949 78.0786 699.029 77.3334 698.884C76.5882 698.739 75.9028 698.377 75.364 697.842C74.8252 697.307 74.4574 696.625 74.3072 695.881C74.157 695.136 74.2312 694.365 74.5203 693.663C74.8095 692.961 75.3006 692.361 75.9313 691.938C76.5621 691.516 77.3041 691.291 78.0631 691.291C79.0744 691.29 80.0447 691.69 80.7625 692.403C81.4802 693.115 81.8873 694.082 81.8949 695.094Z" fill="#EBEBEB"/>
<path d="M627.968 215.601C627.974 216.36 627.754 217.104 627.337 217.738C626.919 218.372 626.323 218.867 625.623 219.162C624.923 219.456 624.152 219.536 623.407 219.391C622.662 219.247 621.976 218.884 621.437 218.349C620.899 217.815 620.531 217.132 620.381 216.388C620.23 215.644 620.305 214.872 620.594 214.17C620.883 213.468 621.374 212.868 622.005 212.446C622.635 212.024 623.377 211.798 624.137 211.798C624.638 211.794 625.136 211.89 625.601 212.079C626.065 212.269 626.488 212.548 626.844 212.902C627.2 213.255 627.483 213.676 627.676 214.139C627.869 214.602 627.968 215.099 627.968 215.601Z" fill="#EBEBEB"/>
<path d="M429.291 3.87287C429.291 4.63073 429.067 5.37156 428.645 6.0017C428.224 6.63183 427.626 7.12297 426.926 7.41299C426.226 7.70301 425.455 7.77889 424.712 7.63104C423.969 7.48319 423.286 7.11825 422.75 6.58236C422.214 6.04648 421.849 5.36371 421.701 4.62041C421.553 3.87712 421.629 3.10667 421.919 2.4065C422.209 1.70633 422.701 1.10789 423.331 0.686846C423.961 0.265803 424.702 0.0410767 425.459 0.0410767C426.473 0.0486154 427.444 0.454744 428.161 1.17172C428.878 1.88869 429.284 2.85895 429.291 3.87287Z" fill="#F5F5F5"/>
<path d="M435.359 937.746C446.742 935.06 453.791 923.655 451.105 912.272C448.418 900.89 437.013 893.841 425.631 896.527C414.249 899.214 407.199 910.619 409.886 922.001C412.572 933.383 423.977 940.432 435.359 937.746Z" fill="#F0F0F0"/>
<path d="M423.212 904.747C418.875 904.739 414.647 906.111 411.141 908.666C409.35 912.773 408.911 917.343 409.885 921.716C410.86 926.09 413.199 930.04 416.564 932.999C419.93 935.957 424.147 937.77 428.61 938.176C433.072 938.582 437.548 937.56 441.392 935.258C443.093 932.11 443.948 928.575 443.873 924.998C443.798 921.421 442.794 917.925 440.962 914.852C439.129 911.779 436.53 909.235 433.418 907.469C430.307 905.703 426.79 904.775 423.212 904.776V904.747Z" fill="#E6E6E6"/>
<g style="mix-blend-mode:luminosity">
<path d="M319.352 562.37H180.104V499.508L319.352 333.966H385.99V503.078H420.522V562.37H385.99V613.813H319.352V562.37ZM319.352 503.078V416.486L245.757 503.078H319.352Z" fill="#EB5B24" fill-opacity="0.36"/>
<path d="M444.344 475.115C444.344 422.802 453.757 386.188 472.583 365.272C491.408 344.356 520.097 333.906 558.649 333.921C577.154 333.921 592.357 336.209 604.256 340.786C615.066 344.681 624.965 350.748 633.342 358.613C640.403 365.354 646.384 373.142 651.077 381.703C655.72 390.641 659.219 400.128 661.489 409.941C666.663 430.905 669.245 452.424 669.178 474.016C669.178 523.934 660.734 560.464 643.846 583.607C626.957 606.75 597.872 618.33 556.589 618.345C533.431 618.345 514.719 614.653 500.455 607.269C486.076 599.765 473.965 588.554 465.374 574.797C458.738 564.667 453.574 550.807 449.882 533.217C446.049 514.09 444.193 494.621 444.344 475.115ZM520.181 475.298C520.181 510.386 523.27 534.315 529.449 547.084C535.628 559.854 544.606 566.269 556.383 566.33C560.121 566.372 563.829 565.671 567.294 564.269C570.759 562.866 573.911 560.79 576.567 558.16C582.273 552.714 586.468 544.11 589.153 532.347C591.838 520.585 593.181 502.278 593.181 477.426C593.181 440.903 590.084 416.349 583.89 403.763C577.696 391.176 568.405 384.891 556.017 384.906C543.385 384.906 534.232 391.321 528.557 404.152C522.881 416.982 520.089 440.697 520.181 475.298Z" fill="#EB5B24" fill-opacity="0.36"/>
<path d="M832.088 562.371H692.84V499.509L832.088 333.967H898.726V503.079H933.373V562.371H898.726V613.814H832.088V562.371ZM832.088 503.079V416.486L758.517 503.079H832.088Z" fill="#EB5B24" fill-opacity="0.36"/>
</g>
<g opacity="0.3">
<path opacity="0.3" d="M441.369 237.374C441.369 238.221 441.117 239.049 440.646 239.754C440.175 240.458 439.505 241.006 438.722 241.33C437.939 241.653 437.077 241.736 436.246 241.569C435.416 241.402 434.653 240.992 434.056 240.392C433.458 239.791 433.052 239.026 432.89 238.195C432.727 237.363 432.815 236.502 433.143 235.72C433.47 234.939 434.022 234.272 434.729 233.805C435.436 233.337 436.265 233.09 437.112 233.095C437.673 233.095 438.229 233.205 438.747 233.421C439.265 233.636 439.735 233.952 440.13 234.349C440.526 234.747 440.839 235.219 441.051 235.738C441.264 236.257 441.372 236.813 441.369 237.374Z" fill="#EB5B24"/>
<path opacity="0.3" d="M148.386 401.749C150.055 401.749 151.407 400.396 151.407 398.728C151.407 397.06 150.055 395.707 148.386 395.707C146.718 395.707 145.366 397.06 145.366 398.728C145.366 400.396 146.718 401.749 148.386 401.749Z" fill="#EB5B24"/>
<path opacity="0.3" d="M647.438 842.882C649.827 842.882 651.763 840.945 651.763 838.557C651.763 836.168 649.827 834.232 647.438 834.232C645.05 834.232 643.113 836.168 643.113 838.557C643.113 840.945 645.05 842.882 647.438 842.882Z" fill="#EB5B24"/>
<path opacity="0.3" d="M751.446 666.905C753.114 666.905 754.466 665.552 754.466 663.884C754.466 662.216 753.114 660.863 751.446 660.863C749.777 660.863 748.425 662.216 748.425 663.884C748.425 665.552 749.777 666.905 751.446 666.905Z" fill="#EB5B24"/>
<path opacity="0.3" d="M952.069 122.954C952.069 123.552 951.892 124.136 951.56 124.633C951.228 125.129 950.756 125.516 950.204 125.745C949.652 125.974 949.045 126.034 948.459 125.917C947.873 125.8 947.335 125.513 946.912 125.09C946.49 124.668 946.202 124.13 946.085 123.544C945.969 122.958 946.029 122.35 946.257 121.798C946.486 121.246 946.873 120.775 947.37 120.443C947.867 120.111 948.451 119.934 949.048 119.934C949.849 119.934 950.617 120.252 951.184 120.818C951.75 121.385 952.069 122.153 952.069 122.954Z" fill="#EB5B24"/>
<path opacity="0.3" d="M376.722 62.0375C376.722 62.6349 376.545 63.2189 376.213 63.7157C375.881 64.2124 375.409 64.5996 374.857 64.8282C374.305 65.0568 373.698 65.1167 373.112 65.0001C372.526 64.8835 371.988 64.5958 371.565 64.1734C371.143 63.7509 370.855 63.2127 370.739 62.6268C370.622 62.0408 370.682 61.4335 370.91 60.8815C371.139 60.3295 371.526 59.8578 372.023 59.5259C372.52 59.1939 373.104 59.0168 373.701 59.0168C374.5 59.0228 375.265 59.3429 375.831 59.9081C376.396 60.4733 376.716 61.2382 376.722 62.0375Z" fill="#EB5B24"/>
<path opacity="0.3" d="M616.888 220.531C618.557 220.531 619.909 219.179 619.909 217.511C619.909 215.842 618.557 214.49 616.888 214.49C615.22 214.49 613.868 215.842 613.868 217.511C613.868 219.179 615.22 220.531 616.888 220.531Z" fill="#EB5B24"/>
</g>
<path d="M304.592 220.554C332.283 220.554 354.73 198.106 354.73 170.416C354.73 142.725 332.283 120.277 304.592 120.277C276.901 120.277 254.453 142.725 254.453 170.416C254.453 198.106 276.901 220.554 304.592 220.554Z" fill="#EB5B24"/>
<path opacity="0.7" d="M304.592 220.554C332.283 220.554 354.73 198.106 354.73 170.416C354.73 142.725 332.283 120.277 304.592 120.277C276.901 120.277 254.453 142.725 254.453 170.416C254.453 198.106 276.901 220.554 304.592 220.554Z" fill="white"/>
<path opacity="0.2" d="M287.314 132.589C280.486 132.568 273.726 133.946 267.451 136.639C259.739 145.115 255.162 155.976 254.481 167.415C253.8 178.854 257.056 190.181 263.707 199.513C270.359 208.844 280.004 215.617 291.04 218.704C302.076 221.791 313.836 221.006 324.363 216.481C330.891 209.288 335.189 200.354 336.737 190.765C338.284 181.176 337.014 171.343 333.081 162.462C329.148 153.581 322.721 146.032 314.581 140.733C306.44 135.434 296.936 132.613 287.223 132.611L287.314 132.589Z" fill="#EB5B24"/>
<path opacity="0.2" d="M282.326 145.838C282.326 146.743 282.057 147.628 281.554 148.381C281.051 149.134 280.337 149.72 279.5 150.067C278.664 150.413 277.744 150.504 276.856 150.327C275.968 150.15 275.153 149.715 274.513 149.075C273.873 148.434 273.437 147.619 273.26 146.731C273.084 145.843 273.174 144.923 273.521 144.087C273.867 143.25 274.454 142.536 275.206 142.033C275.959 141.53 276.844 141.261 277.749 141.261C278.963 141.261 280.127 141.744 280.985 142.602C281.844 143.46 282.326 144.624 282.326 145.838Z" fill="#EB5B24"/>
<path opacity="0.2" d="M336.24 141.261C336.24 142.167 335.972 143.052 335.469 143.804C334.966 144.557 334.251 145.143 333.415 145.49C332.579 145.836 331.658 145.927 330.771 145.75C329.883 145.574 329.067 145.138 328.427 144.498C327.787 143.858 327.351 143.042 327.175 142.154C326.998 141.267 327.089 140.346 327.435 139.51C327.781 138.674 328.368 137.959 329.121 137.456C329.873 136.953 330.758 136.685 331.663 136.685C332.877 136.685 334.041 137.167 334.9 138.025C335.758 138.884 336.24 140.048 336.24 141.261Z" fill="#EB5B24"/>
<path opacity="0.2" d="M327.087 173.94C327.087 175.424 326.647 176.875 325.822 178.11C324.997 179.344 323.825 180.306 322.453 180.874C321.082 181.442 319.572 181.591 318.116 181.301C316.66 181.012 315.323 180.297 314.273 179.247C313.224 178.197 312.509 176.86 312.219 175.404C311.929 173.948 312.078 172.439 312.646 171.067C313.214 169.696 314.176 168.524 315.411 167.699C316.645 166.874 318.096 166.434 319.581 166.434C321.572 166.434 323.481 167.225 324.888 168.632C326.296 170.04 327.087 171.949 327.087 173.94Z" fill="#EB5B24"/>
<path opacity="0.2" d="M303.242 195.336C303.242 197.319 302.654 199.256 301.552 200.905C300.451 202.553 298.886 203.838 297.054 204.596C295.223 205.355 293.207 205.553 291.263 205.167C289.319 204.78 287.533 203.825 286.131 202.424C284.729 201.022 283.775 199.236 283.388 197.292C283.001 195.347 283.2 193.332 283.958 191.5C284.717 189.669 286.002 188.104 287.65 187.002C289.298 185.901 291.236 185.313 293.218 185.313C295.877 185.313 298.426 186.369 300.306 188.249C302.186 190.128 303.242 192.678 303.242 195.336Z" fill="#EB5B24"/>
<path d="M898.817 775.205C904.4 751.551 889.751 727.85 866.097 722.268C842.443 716.685 818.742 731.334 813.159 754.988C807.576 778.642 822.226 802.343 845.88 807.925C869.533 813.508 893.234 798.859 898.817 775.205Z" fill="#EB5B24"/>
<path opacity="0.3" d="M898.817 775.205C904.4 751.551 889.751 727.85 866.097 722.268C842.443 716.685 818.742 731.334 813.159 754.988C807.576 778.642 822.226 802.343 845.88 807.925C869.533 813.508 893.234 798.859 898.817 775.205Z" fill="white"/>
<path opacity="0.4" d="M883.783 731.025C874.028 728.081 863.553 728.615 854.148 732.536C844.743 736.458 836.991 743.523 832.217 752.526C827.443 761.528 825.943 771.908 827.973 781.894C830.003 791.88 835.437 800.851 843.347 807.274C847.45 808.52 851.714 809.153 856.002 809.151C865.087 809.149 873.948 806.335 881.37 801.096C888.792 795.857 894.411 788.449 897.455 779.889C900.498 771.329 900.818 762.037 898.37 753.288C895.923 744.539 890.827 736.763 883.783 731.025Z" fill="#EB5B24"/>
<path d="M813.987 778.303C767.007 800.409 802.042 817.458 868.245 793.658C929.551 771.621 952.915 743.84 897.994 752.467C900.946 764.024 824.171 793.933 813.987 778.303Z" fill="#EB5B24"/>
<path opacity="0.2" d="M883.257 333.967C821.722 375.547 742.063 430.468 720.072 562.371H715.381C736.777 431.933 813.53 375.707 875.087 333.967H883.257Z" fill="black"/>
<path d="M564.942 746.884C526.039 746.884 487.571 729.332 468.83 700.681C457.273 682.969 443.84 645.874 483.841 596.376L487.388 599.26C459.104 634.272 453.886 669.399 472.674 698.187C495.558 733.199 549.541 750.82 595.629 738.279C642.839 725.442 671.489 684.388 674.258 625.645C683.709 424.701 790.463 362.8 868.405 317.605C916.85 289.526 951.84 269.251 944.151 226.435C943.075 220.508 940.718 216.412 936.897 213.895C926.942 207.327 907.491 211.881 884.973 217.122C840.784 227.419 780.279 241.516 744.237 180.21L748.196 177.922C782.522 236.344 838.748 223.232 883.943 212.705C907.491 207.236 927.812 202.499 939.414 210.119C944.334 213.346 947.355 218.449 948.568 225.68C956.829 271.631 918.818 293.691 870.648 321.609C793.598 366.279 688.103 427.447 678.766 625.965C675.883 686.836 645.997 729.423 596.751 742.81C586.375 745.573 575.679 746.943 564.942 746.884Z" fill="#EB5B24"/>
<path opacity="0.2" d="M564.942 746.884C526.039 746.884 487.571 729.332 468.83 700.681C457.273 682.969 443.84 645.874 483.841 596.376L487.388 599.26C459.104 634.272 453.886 669.399 472.674 698.187C495.558 733.199 549.541 750.82 595.629 738.279C642.839 725.442 671.489 684.388 674.258 625.645C683.709 424.701 790.463 362.8 868.405 317.605C916.85 289.526 951.84 269.251 944.151 226.435C943.075 220.508 940.718 216.412 936.897 213.895C926.942 207.327 907.491 211.881 884.973 217.122C840.784 227.419 780.279 241.516 744.237 180.21L748.196 177.922C782.522 236.344 838.748 223.232 883.943 212.705C907.491 207.236 927.812 202.499 939.414 210.119C944.334 213.346 947.355 218.449 948.568 225.68C956.829 271.631 918.818 293.691 870.648 321.609C793.598 366.279 688.103 427.447 678.766 625.965C675.883 686.836 645.997 729.423 596.751 742.81C586.375 745.573 575.679 746.943 564.942 746.884Z" fill="white"/>
<path d="M697.119 126.112C707.664 126.173 718.139 127.816 728.196 130.987C728.196 130.987 753.368 173.94 756.343 183.78C755.29 193.483 738.928 209.387 738.928 209.387L697.119 126.112Z" fill="#EB5B24"/>
<path opacity="0.3" d="M697.119 126.112C707.664 126.173 718.139 127.816 728.196 130.987C728.196 130.987 753.368 173.94 756.343 183.78C755.29 193.483 738.928 209.387 738.928 209.387L697.119 126.112Z" fill="white"/>
<path d="M771.675 334.653C761.981 322.8 753.141 310.274 745.221 297.169C743.299 293.859 741.476 290.487 739.752 287.055C738.768 285.11 737.83 283.165 736.914 281.197C735.713 279.281 734.781 277.21 734.145 275.041C731.399 246.047 741.331 224.696 731.857 201.423L694.144 216.161C694.144 216.161 697.348 257.626 704.671 282.524C709.248 297.925 719.5 311.243 729.408 323.577C732.498 327.422 735.473 331.381 738.562 335.248C741.651 339.116 744.764 342.251 747.716 345.889C752.178 351.404 753.642 356.69 750.279 363.19L749.706 364.219C748.745 365.913 753.231 367.835 756.068 364.219C760.645 358.315 760.004 358.681 763.986 353.647C766.412 350.603 769.181 347.285 771.583 344.493C772.742 343.121 773.386 341.386 773.403 339.59C773.419 337.793 772.808 336.047 771.675 334.653Z" fill="#EB5B24"/>
<path opacity="0.7" d="M771.675 334.653C761.981 322.8 753.141 310.274 745.221 297.169C743.299 293.859 741.476 290.487 739.752 287.055C738.768 285.11 737.83 283.165 736.914 281.197C735.713 279.281 734.781 277.21 734.145 275.041C731.399 246.047 741.331 224.696 731.857 201.423L694.144 216.161C694.144 216.161 697.348 257.626 704.671 282.524C709.248 297.925 719.5 311.243 729.408 323.577C732.498 327.422 735.473 331.381 738.562 335.248C741.651 339.116 744.764 342.251 747.716 345.889C752.178 351.404 753.642 356.69 750.279 363.19L749.706 364.219C748.745 365.913 753.231 367.835 756.068 364.219C760.645 358.315 760.004 358.681 763.986 353.647C766.412 350.603 769.181 347.285 771.583 344.493C772.742 343.121 773.386 341.386 773.403 339.59C773.419 337.793 772.808 336.047 771.675 334.653Z" fill="white"/>
<path opacity="0.3" d="M762.453 322.731C756.468 329.146 749.826 334.914 742.635 339.939C743.619 341.038 744.58 342.228 745.564 343.28C752.764 338.417 759.302 332.64 765.016 326.095L762.453 322.731Z" fill="#EB5B24"/>
<path opacity="0.3" d="M771.675 334.653L771.4 334.333C769.64 336.353 768.615 338.91 768.494 341.587C768.347 343.424 768.645 345.268 769.364 346.965L771.538 344.379C772.674 343.02 773.308 341.312 773.333 339.54C773.358 337.769 772.773 336.044 771.675 334.653Z" fill="#EB5B24"/>
<path d="M688.149 153.573C684.06 159.695 679.156 165.23 673.572 170.027C670.475 172.696 667.081 174.999 663.457 176.892C661.553 177.867 659.58 178.701 657.553 179.386L655.997 179.889L655.494 180.027L654.418 180.324C653.756 180.481 653.083 180.589 652.404 180.645C650.474 180.792 648.532 180.614 646.66 180.118C644.3 179.448 642.038 178.471 639.932 177.212C638.238 176.222 636.596 175.145 635.012 173.985C632.151 171.857 629.416 169.565 626.82 167.12C621.814 162.377 617.221 157.218 613.09 151.697C612.294 150.621 611.899 149.301 611.972 147.966C612.046 146.63 612.583 145.362 613.492 144.38C614.401 143.398 615.623 142.764 616.95 142.587C618.276 142.411 619.622 142.703 620.756 143.413H620.939C626.339 146.845 631.786 150.461 637.095 153.687C639.795 155.266 642.404 156.868 644.99 158.104C646.17 158.722 647.385 159.272 648.628 159.752C649.403 160.094 650.232 160.295 651.077 160.347C651.214 160.347 651.077 160.186 650.23 160.209C649.963 160.193 649.696 160.193 649.429 160.209L648.926 160.324L649.681 159.935C650.698 159.388 651.683 158.784 652.633 158.127C654.681 156.683 656.595 155.06 658.354 153.276C662.352 149.086 666.096 144.661 669.567 140.026C671.469 137.898 674.097 136.558 676.936 136.268C679.774 135.978 682.619 136.76 684.912 138.459C687.204 140.158 688.779 142.653 689.327 145.453C689.875 148.254 689.357 151.158 687.874 153.596L688.149 153.573Z" fill="#EB5B24"/>
<path opacity="0.7" d="M688.149 153.573C684.06 159.695 679.156 165.23 673.572 170.027C670.475 172.696 667.081 174.999 663.457 176.892C661.553 177.867 659.58 178.701 657.553 179.386L655.997 179.889L655.494 180.027L654.418 180.324C653.756 180.481 653.083 180.589 652.404 180.645C650.474 180.792 648.532 180.614 646.66 180.118C644.3 179.448 642.038 178.471 639.932 177.212C638.238 176.222 636.596 175.145 635.012 173.985C632.151 171.857 629.416 169.565 626.82 167.12C621.814 162.377 617.221 157.218 613.09 151.697C612.294 150.621 611.899 149.301 611.972 147.966C612.046 146.63 612.583 145.362 613.492 144.38C614.401 143.398 615.623 142.764 616.95 142.587C618.276 142.411 619.622 142.703 620.756 143.413H620.939C626.339 146.845 631.786 150.461 637.095 153.687C639.795 155.266 642.404 156.868 644.99 158.104C646.17 158.722 647.385 159.272 648.628 159.752C649.403 160.094 650.232 160.295 651.077 160.347C651.214 160.347 651.077 160.186 650.23 160.209C649.963 160.193 649.696 160.193 649.429 160.209L648.926 160.324L649.681 159.935C650.698 159.388 651.683 158.784 652.633 158.127C654.681 156.683 656.595 155.06 658.354 153.276C662.352 149.086 666.096 144.661 669.567 140.026C671.469 137.898 674.097 136.558 676.936 136.268C679.774 135.978 682.619 136.76 684.912 138.459C687.204 140.158 688.779 142.653 689.327 145.453C689.875 148.254 689.357 151.158 687.874 153.596L688.149 153.573Z" fill="white"/>
<path d="M604.508 138.515L607.186 143.092C607.186 143.092 609.222 149.088 613.318 150.186L624.44 146.593L623.868 145.655C622.449 143.504 622.609 139.316 623.09 135.838C623.57 132.36 621.786 132.245 620.458 133.115C619.518 134.197 618.857 135.493 618.536 136.891C617.99 136.135 617.386 135.423 616.728 134.762L613.341 131.376C612.631 130.681 611.684 130.281 610.691 130.256C609.698 130.23 608.732 130.581 607.987 131.238L605.24 133.687C604.589 134.289 604.162 135.096 604.029 135.973C603.896 136.85 604.065 137.747 604.508 138.515Z" fill="#EB5B24"/>
<path opacity="0.7" d="M604.508 138.515L607.186 143.092C607.186 143.092 609.222 149.088 613.318 150.186L624.44 146.593L623.868 145.655C622.449 143.504 622.609 139.316 623.09 135.838C623.57 132.36 621.786 132.245 620.458 133.115C619.518 134.197 618.857 135.493 618.536 136.891C617.99 136.135 617.386 135.423 616.728 134.762L613.341 131.376C612.631 130.681 611.684 130.281 610.691 130.256C609.698 130.23 608.732 130.581 607.987 131.238L605.24 133.687C604.589 134.289 604.162 135.096 604.029 135.973C603.896 136.85 604.065 137.747 604.508 138.515Z" fill="white"/>
<path d="M708.355 122.039C696.019 125.309 684.203 130.293 673.251 136.845C671.543 137.914 670.202 139.48 669.409 141.333C668.615 143.186 668.407 145.237 668.812 147.211C673.229 168.814 683.275 197.739 694.121 216.16L744.718 195.222C745.061 186.297 732.772 157.418 720.255 129.499C718.012 124.488 713.687 120.758 708.355 122.039Z" fill="#EB5B24"/>
<path opacity="0.8" d="M708.355 122.039C696.019 125.309 684.203 130.293 673.251 136.845C671.543 137.914 670.202 139.48 669.409 141.333C668.615 143.186 668.407 145.237 668.812 147.211C673.229 168.814 683.275 197.739 694.121 216.16L744.718 195.222C745.061 186.297 732.772 157.418 720.255 129.499C718.012 124.488 713.687 120.758 708.355 122.039Z" fill="white"/>
<path opacity="0.3" d="M728.104 147.188L718.058 143.824C720.346 149.706 728.424 157.143 734.077 161.514C732.246 156.937 730.209 152.131 728.104 147.188Z" fill="#EB5B24"/>
<path d="M705.037 99.384C700.849 91.4204 691.81 87.4157 680.963 88.3082C671.81 89.0862 663.709 98.4229 664.67 103.457C665.631 108.492 673.32 110.643 674.785 112.382L668.446 116.959C667.695 117.501 667.061 118.189 666.584 118.982C666.106 119.776 665.793 120.657 665.665 121.574C665.537 122.492 665.595 123.425 665.837 124.319C666.079 125.213 666.499 126.049 667.073 126.776C669.75 130.163 673.274 133.641 675.311 136.204C692.84 135.747 705.815 129.064 710.506 122.634C708.744 114.487 709.111 107.302 705.037 99.384Z" fill="#EB5B24"/>
<path opacity="0.8" d="M705.037 99.384C700.849 91.4204 691.81 87.4157 680.963 88.3082C671.81 89.0862 663.709 98.4229 664.67 103.457C665.631 108.492 673.32 110.643 674.785 112.382L668.446 116.959C667.695 117.501 667.061 118.189 666.584 118.982C666.106 119.776 665.793 120.657 665.665 121.574C665.537 122.492 665.595 123.425 665.837 124.319C666.079 125.213 666.499 126.049 667.073 126.776C669.75 130.163 673.274 133.641 675.311 136.204C692.84 135.747 705.815 129.064 710.506 122.634C708.744 114.487 709.111 107.302 705.037 99.384Z" fill="white"/>
<path d="M696.433 104.327C697.677 107.518 697.948 111.007 697.21 114.352C696.472 117.697 694.758 120.748 692.287 123.12C689.815 125.491 686.696 127.077 683.323 127.676C679.951 128.275 676.476 127.861 673.339 126.486C670.201 125.111 667.542 122.836 665.697 119.95C663.852 117.064 662.905 113.696 662.974 110.271C663.043 106.846 664.125 103.519 666.085 100.709C668.045 97.8998 670.794 95.7344 673.984 94.4868C678.266 92.8186 683.035 92.9179 687.244 94.7628C691.453 96.6077 694.758 100.048 696.433 104.327Z" fill="#263238"/>
<path d="M845.018 310.557C844.766 303.028 844.423 303.691 844.217 297.353C844.08 293.462 844.057 289.137 844.034 285.407C844.026 283.636 843.407 281.921 842.281 280.554C841.156 279.186 839.592 278.249 837.855 277.901C834.835 277.283 831.791 276.711 828.702 276.071C824.743 275.224 820.83 274.308 816.962 273.187C813.942 272.318 810.967 271.356 808.015 270.281C805.063 269.205 801.744 267.993 798.678 266.574C795.062 265.041 791.492 263.393 787.968 261.677C784.009 259.8 780.096 257.832 776.183 255.841C761.125 230.921 760.805 214.49 744.649 195.222L709.957 210.92C709.957 210.92 735.45 256.139 752.796 275.315C762.796 286.345 778.472 291.334 792.454 294.95C802.545 297.536 812.774 299.527 823.004 301.426C826.985 302.158 831.31 302.433 834.743 304.813C837.283 306.76 839.024 309.567 839.64 312.708C839.793 313.348 839.93 313.989 840.052 314.63C840.487 316.552 845.178 315.088 845.018 310.557Z" fill="#EB5B24"/>
<path opacity="0.8" d="M845.018 310.557C844.766 303.028 844.423 303.691 844.217 297.353C844.08 293.462 844.057 289.137 844.034 285.407C844.026 283.636 843.407 281.921 842.281 280.554C841.156 279.186 839.592 278.249 837.855 277.901C834.835 277.283 831.791 276.711 828.702 276.071C824.743 275.224 820.83 274.308 816.962 273.187C813.942 272.318 810.967 271.356 808.015 270.281C805.063 269.205 801.744 267.993 798.678 266.574C795.062 265.041 791.492 263.393 787.968 261.677C784.009 259.8 780.096 257.832 776.183 255.841C761.125 230.921 760.805 214.49 744.649 195.222L709.957 210.92C709.957 210.92 735.45 256.139 752.796 275.315C762.796 286.345 778.472 291.334 792.454 294.95C802.545 297.536 812.774 299.527 823.004 301.426C826.985 302.158 831.31 302.433 834.743 304.813C837.283 306.76 839.024 309.567 839.64 312.708C839.793 313.348 839.93 313.989 840.052 314.63C840.487 316.552 845.178 315.088 845.018 310.557Z" fill="white"/>
<path opacity="0.3" d="M827.42 275.773C826.047 275.475 824.674 275.178 823.278 274.835C823.393 282.753 819.685 296.391 818.335 300.533L822.683 301.357C825.533 293.114 827.129 284.49 827.42 275.773Z" fill="#EB5B24"/>
<path opacity="0.3" d="M844.125 285.407C844.119 283.639 843.503 281.927 842.382 280.56C841.26 279.193 839.702 278.254 837.97 277.901L835.681 277.466C836.049 280.068 837.38 282.436 839.411 284.103C840.718 285.31 842.283 286.203 843.988 286.712C844.125 286.3 844.125 285.842 844.125 285.407Z" fill="#EB5B24"/>
<path d="M693.206 104.464C694.121 107.943 690.231 111.581 687.142 108.583C684.259 105.492 681.103 102.666 677.714 100.139C674.533 98.1482 678.766 94.6699 683.778 96.02C685.917 96.5573 687.892 97.6067 689.535 99.0778C691.177 100.549 692.437 102.398 693.206 104.464Z" fill="white"/>
<path d="M693.458 215.039C691.856 215.634 694.785 218.38 694.785 218.38C694.785 218.38 726.823 207.419 746.274 196.137C746.321 195.454 746.204 194.77 745.934 194.141C745.663 193.512 745.246 192.957 744.718 192.521C728.07 200.99 710.956 208.508 693.458 215.039Z" fill="#EB5B24"/>
<path opacity="0.5" d="M693.458 215.039C691.856 215.634 694.785 218.38 694.785 218.38C694.785 218.38 726.823 207.419 746.274 196.137C746.321 195.454 746.204 194.77 745.934 194.141C745.663 193.512 745.246 192.957 744.718 192.521C728.07 200.99 710.956 208.508 693.458 215.039Z" fill="white"/>
<path d="M717.028 120.529C723.344 123.732 729.271 127.096 735.335 130.826C738.287 132.703 741.217 134.602 744.123 136.662C747.029 138.721 749.912 140.827 752.819 143.207L753.894 144.099L755.244 145.335C756.049 146.055 756.813 146.819 757.533 147.623C758.265 148.424 758.883 149.202 759.478 149.912C760.073 150.621 760.714 151.468 761.24 152.2C763.372 155.142 765.343 158.198 767.144 161.354C770.691 167.473 773.751 173.862 776.298 180.462C776.768 181.708 776.793 183.08 776.366 184.342C775.94 185.605 775.09 186.681 773.96 187.388C772.83 188.095 771.49 188.388 770.168 188.218C768.846 188.049 767.624 187.426 766.709 186.457L766.595 186.32C762.018 181.446 757.601 176.32 753.162 171.537C748.722 166.754 744.214 161.903 740.484 159.775C735.29 156.548 729.5 153.321 723.756 150.163L706.456 140.552C703.773 139.132 701.765 136.704 700.872 133.803C699.98 130.902 700.276 127.765 701.696 125.083C703.116 122.4 705.544 120.391 708.445 119.499C711.346 118.606 714.483 118.903 717.166 120.323L717.028 120.529Z" fill="#EB5B24"/>
<path opacity="0.8" d="M717.028 120.529C723.344 123.732 729.271 127.096 735.335 130.826C738.287 132.703 741.217 134.602 744.123 136.662C747.029 138.721 749.912 140.827 752.819 143.207L753.894 144.099L755.244 145.335C756.049 146.055 756.813 146.819 757.533 147.623C758.265 148.424 758.883 149.202 759.478 149.912C760.073 150.621 760.714 151.468 761.24 152.2C763.372 155.142 765.343 158.198 767.144 161.354C770.691 167.473 773.751 173.862 776.298 180.462C776.768 181.708 776.793 183.08 776.366 184.342C775.94 185.605 775.09 186.681 773.96 187.388C772.83 188.095 771.49 188.388 770.168 188.218C768.846 188.049 767.624 187.426 766.709 186.457L766.595 186.32C762.018 181.446 757.601 176.32 753.162 171.537C748.722 166.754 744.214 161.903 740.484 159.775C735.29 156.548 729.5 153.321 723.756 150.163L706.456 140.552C703.773 139.132 701.765 136.704 700.872 133.803C699.98 130.902 700.276 127.765 701.696 125.083C703.116 122.4 705.544 120.391 708.445 119.499C711.346 118.606 714.483 118.903 717.166 120.323L717.028 120.529Z" fill="white"/>
<path d="M781.721 191.881L779.776 187.006C779.776 187.006 778.7 180.782 774.833 179.043L763.391 180.851L763.78 181.857C764.833 184.146 764.032 188.334 763.002 191.675C761.972 195.016 763.711 195.45 765.176 194.787C766 194.421 766.801 192.933 767.67 191.354C768.097 192.15 768.579 192.914 769.112 193.643L771.927 197.51C772.515 198.311 773.384 198.861 774.361 199.047C775.337 199.234 776.348 199.045 777.19 198.517L780.302 196.526C781.031 196.028 781.568 195.296 781.826 194.452C782.084 193.608 782.047 192.701 781.721 191.881Z" fill="#EB5B24"/>
<path opacity="0.8" d="M781.721 191.881L779.776 187.006C779.776 187.006 778.7 180.782 774.833 179.043L763.391 180.851L763.78 181.857C764.833 184.146 764.032 188.334 763.002 191.675C761.972 195.016 763.711 195.45 765.176 194.787C766 194.421 766.801 192.933 767.67 191.354C768.097 192.15 768.579 192.914 769.112 193.643L771.927 197.51C772.515 198.311 773.384 198.861 774.361 199.047C775.337 199.234 776.348 199.045 777.19 198.517L780.302 196.526C781.031 196.028 781.568 195.296 781.826 194.452C782.084 193.608 782.047 192.701 781.721 191.881Z" fill="white"/>
<path opacity="0.3" d="M707.371 146.845L704.579 147.074L687.439 188.448C688.376 188.515 689.318 188.438 690.231 188.219C690.231 188.219 712.566 179.889 719.317 176.777C714.786 167.418 707.371 146.845 707.371 146.845Z" fill="#EB5B24"/>
<path d="M676.089 157.692C678.172 168.507 682.038 178.901 687.531 188.448C695.906 185.565 709.866 180.118 716.639 177.006C712.086 167.246 708.046 157.255 704.534 147.074C697.371 147.555 681.65 153.573 676.089 157.692Z" fill="white"/>
<path opacity="0.3" d="M693.092 166.64C692.757 167.759 692.098 168.753 691.198 169.498C690.298 170.242 689.198 170.703 688.036 170.822C686.874 170.941 685.703 170.712 684.671 170.166C683.639 169.619 682.792 168.778 682.238 167.75C681.684 166.722 681.447 165.552 681.558 164.389C681.668 163.227 682.121 162.123 682.859 161.218C683.598 160.312 684.588 159.646 685.704 159.304C686.821 158.962 688.014 158.958 689.133 159.294C690.631 159.744 691.89 160.77 692.632 162.148C693.375 163.525 693.54 165.141 693.092 166.64Z" fill="#EB5B24"/>
<path opacity="0.6" d="M697.463 158.768C697.373 159.15 697.171 159.496 696.881 159.761C696.592 160.025 696.229 160.196 695.841 160.251C695.452 160.306 695.056 160.243 694.705 160.068C694.353 159.894 694.063 159.618 693.871 159.276C693.68 158.934 693.596 158.541 693.631 158.151C693.666 157.76 693.819 157.389 694.069 157.087C694.318 156.784 694.654 156.564 695.031 156.456C695.408 156.348 695.809 156.356 696.181 156.479C696.645 156.628 697.035 156.946 697.273 157.371C697.51 157.796 697.578 158.295 697.463 158.768Z" fill="#EB5B24"/>
<path opacity="0.6" d="M702.589 156.777C702.535 157.042 702.426 157.294 702.27 157.515C702.113 157.736 701.912 157.922 701.68 158.061C701.448 158.2 701.189 158.289 700.92 158.322C700.651 158.355 700.378 158.331 700.119 158.253C699.86 158.174 699.62 158.043 699.414 157.866C699.209 157.69 699.043 157.472 698.926 157.228C698.81 156.983 698.745 156.717 698.738 156.446C698.73 156.176 698.779 155.906 698.881 155.656C698.955 155.413 699.075 155.188 699.235 154.992C699.396 154.797 699.593 154.635 699.817 154.516C700.04 154.397 700.284 154.323 700.536 154.299C700.788 154.274 701.042 154.3 701.284 154.374C701.774 154.522 702.186 154.858 702.43 155.308C702.674 155.757 702.731 156.285 702.589 156.777Z" fill="#EB5B24"/>
<path opacity="0.5" d="M709.774 174.603L688.606 182.956L687.348 178.791L708.493 170.438L709.774 174.603Z" fill="#EB5B24"/>
<path opacity="0.2" d="M592.998 492.644C592.949 505.969 591.662 519.26 589.153 532.347C586.453 544.109 582.257 552.714 576.567 558.16C573.917 560.791 570.769 562.869 567.308 564.271C563.847 565.674 560.141 566.374 556.406 566.33C544.644 566.33 535.666 559.915 529.472 547.084C528.384 544.78 527.458 542.402 526.703 539.968C513.622 551.202 501.441 563.445 490.272 576.582L478.121 590.907C484.66 597.535 492.205 603.088 500.478 607.361C514.727 614.729 533.431 618.421 556.589 618.436C560.663 618.436 564.599 618.322 568.42 618.093C582.431 597.362 594.025 575.096 602.975 551.73L636.958 463.123L592.998 492.644Z" fill="black"/>
<path d="M286.651 613.539L326.698 653.586L438.829 547.931C400.178 533.171 325.027 575.071 286.651 613.539Z" fill="#263238"/>
<path d="M426.311 753.131C413.519 740.316 386.265 713.084 386.265 713.084L491.92 600.953C506.588 639.512 464.688 714.732 426.311 753.131Z" fill="#263238"/>
<path d="M579.588 500.722L623.273 416.486L539.037 460.217C511.981 474.249 486.998 491.962 464.802 512.85L321.206 648.025L391.757 718.576L526.932 574.98C547.83 552.778 565.55 527.788 579.588 500.722Z" fill="#EB5B24"/>
<path opacity="0.6" d="M579.588 500.722L623.273 416.486L539.037 460.217C511.981 474.249 486.998 491.962 464.802 512.85L321.206 648.025L391.757 718.576L526.932 574.98C547.83 552.778 565.55 527.788 579.588 500.722Z" fill="white"/>
<path d="M489.883 579.396C506.186 579.396 519.403 566.18 519.403 549.876C519.403 533.573 506.186 520.356 489.883 520.356C473.579 520.356 460.363 533.573 460.363 549.876C460.363 566.18 473.579 579.396 489.883 579.396Z" fill="white"/>
<path d="M489.883 568.847C500.36 568.847 508.854 560.353 508.854 549.876C508.854 539.399 500.36 530.906 489.883 530.906C479.406 530.906 470.912 539.399 470.912 549.876C470.912 560.353 479.406 568.847 489.883 568.847Z" fill="#EB5B24"/>
<path opacity="0.3" d="M415.625 693.221L346.538 624.134L403.107 570.906L468.853 636.675L415.625 693.221Z" fill="#EB5B24"/>
<path d="M302.281 676.745C250.563 680.932 233.423 714.045 227.565 758.051C224.59 780.5 223.263 803.224 204.429 816.359C203.296 817.129 202.443 818.246 201.998 819.541C201.552 820.837 201.539 822.241 201.959 823.545C202.379 824.849 203.21 825.982 204.328 826.774C205.446 827.566 206.79 827.974 208.159 827.938C277.589 825.764 309.97 791.782 314.043 777.594C312.974 785.011 311.062 792.281 308.345 799.265C307.845 800.497 307.748 801.856 308.065 803.147C308.383 804.438 309.1 805.596 310.115 806.456C311.129 807.315 312.389 807.833 313.715 807.935C315.041 808.036 316.365 807.717 317.498 807.022C336.973 794.825 361.413 772.353 363.037 735.899C348.712 715.601 302.281 676.745 302.281 676.745Z" fill="#EB5B24"/>
<path opacity="0.2" d="M302.281 676.745C250.563 680.932 233.423 714.045 227.565 758.051C224.59 780.5 223.263 803.224 204.429 816.359C203.296 817.129 202.443 818.246 201.998 819.541C201.552 820.837 201.539 822.241 201.959 823.545C202.379 824.849 203.21 825.982 204.328 826.774C205.446 827.566 206.79 827.974 208.159 827.938C277.589 825.764 309.97 791.782 314.043 777.594C312.974 785.011 311.062 792.281 308.345 799.265C307.845 800.497 307.748 801.856 308.065 803.147C308.383 804.438 309.1 805.596 310.115 806.456C311.129 807.315 312.389 807.833 313.715 807.935C315.041 808.036 316.365 807.717 317.498 807.022C336.973 794.825 361.413 772.353 363.037 735.899C348.712 715.601 302.281 676.745 302.281 676.745Z" fill="white"/>
<path d="M371.07 751.529L288.23 668.689L332.35 659.147L380.612 707.409L371.07 751.529Z" fill="#EB5B24"/>
</svg>
